<svg width="1024" height="1024" viewBox="0 0 1024 1024" fill="none" xmlns="http://www.w3.org/2000/svg">
<rect width="1024" height="1024" rx="200" fill="url(#paint0_linear_36_2)"/>
<path fill-rule="evenodd" clip-rule="evenodd" d="M714.475 356.792H771.309C796.416 356.792 816.728 375.886 816.728 400.952V623.008C816.728 648.094 796.416 663.348 771.309 663.348H695.422L695.564 766.983L581.367 663.348H493.841C468.755 663.348 448.422 648.094 448.422 623.008C448.422 623.008 651.709 621.891 670.742 621.891C689.775 621.891 714.475 597.414 714.475 578.381V356.792Z" fill="#26C0E6"/>
<path d="M695.686 556.139V302.497C695.686 277.431 675.373 257.078 650.267 257.078H252.731C227.645 257.058 207.312 277.411 207.312 302.497V556.139C207.312 581.225 227.645 601.558 252.731 601.558H328.477V705.903L444.339 601.558H650.247C675.373 601.558 695.686 581.225 695.686 556.139Z" fill="#ED7141"/>
<defs>
<linearGradient id="paint0_linear_36_2" x1="1008.14" y1="1024" x2="0.643497" y2="0.000140525" gradientUnits="userSpaceOnUse">
<stop stop-color="#2E3145"/>
<stop offset="0.5" stop-color="#3F405D"/>
<stop offset="1" stop-color="#4D5170"/>
</linearGradient>
</defs>
</svg>
