<svg xmlns="http://www.w3.org/2000/svg" width="650" height="650" fill="none" viewBox="0 0 650 650"><path fill="#26c0e6" fill-rule="evenodd" d="M527.475 169.792h56.834c25.107 0 45.419 19.094 45.419 44.16v222.056c0 25.086-20.312 40.34-45.419 40.34h-75.887l.142 103.635-114.197-103.635h-87.526c-25.086 0-45.419-15.254-45.419-40.34 0 0 203.287-1.117 222.32-1.117s43.733-24.477 43.733-43.51z" clip-rule="evenodd"/><path fill="#ed7141" d="M508.686 369.139V115.497c0-25.066-20.313-45.419-45.419-45.419H65.731c-25.086-.02-45.418 20.333-45.418 45.419v253.642c0 25.086 20.332 45.419 45.418 45.419h75.746v104.345l115.862-104.345h205.908c25.126 0 45.439-20.333 45.439-45.419"/></svg>